<?xml version="1.0" standalone="no"?>
<!DOCTYPE svg PUBLIC "-//W3C//DTD SVG 20010904//EN"
 "http://www.w3.org/TR/2001/REC-SVG-20010904/DTD/svg10.dtd">
<svg version="1.0" xmlns="http://www.w3.org/2000/svg"
 width="512.000000pt" height="512.000000pt" viewBox="0 0 512.000000 512.000000"
 preserveAspectRatio="xMidYMid meet">
<metadata>
Created by potrace 1.14, written by Peter Selinger 2001-2017
</metadata>
<g transform="translate(0.000000,512.000000) scale(0.100000,-0.100000)"
fill="#000000" stroke="none">
<path d="M0 2560 l0 -2560 2560 0 2560 0 0 2560 0 2560 -2560 0 -2560 0 0
-2560z m2251 580 l4 -115 -38 -3 c-40 -3 -67 11 -67 34 0 25 83 215 91 207 4
-4 9 -60 10 -123z m1223 16 l7 -44 84 -3 c86 -4 102 -9 90 -30 -9 -14 -165 -5
-215 13 -26 9 -31 14 -26 34 22 86 50 100 60 30z m-1839 -102 c24 -158 45
-327 41 -332 -23 -22 -152 -16 -182 9 -20 17 -17 40 6 46 11 3 22 15 25 27 8
32 42 215 50 266 19 119 40 114 60 -16z m820 76 c16 -6 23 -15 19 -21 -8 -14
-110 -5 -175 15 l-44 14 87 1 c48 1 99 -3 113 -9z m439 -196 c9 -64 24 -130
31 -145 19 -35 3 -50 -57 -52 -35 -2 -43 -6 -44 -22 -2 -45 -4 -55 -14 -55 -5
0 -10 7 -10 15 0 8 -7 15 -16 15 -14 0 -14 1 0 16 23 22 20 30 -14 44 -41 17
-40 48 0 57 17 3 33 9 36 14 3 5 12 59 20 121 8 62 17 120 20 128 12 32 30
-20 48 -136z m-826 100 c29 -20 20 -34 -21 -34 -36 0 -81 26 -72 41 10 15 68
10 93 -7z m349 -34 c9 -32 13 -35 58 -42 26 -4 55 -14 63 -22 14 -14 13 -16
-9 -24 -13 -5 -39 -8 -58 -6 l-34 5 7 -38 c3 -21 9 -90 12 -154 7 -114 7 -116
-17 -132 -13 -10 -34 -17 -47 -17 -37 0 -92 30 -98 54 -4 18 16 107 62 267 4
14 -8 16 -98 13 -114 -3 -113 -1 16 25 97 19 93 16 111 95 7 34 20 25 32 -24z
m901 -24 c21 -20 5 -39 -27 -31 -38 9 -73 34 -65 47 9 14 73 3 92 -16z m251
-43 c11 -24 22 -32 50 -37 20 -3 43 -10 51 -16 13 -9 13 -11 0 -20 -8 -5 -29
-10 -46 -10 l-31 0 24 -117 24 -118 -23 -18 c-27 -23 -93 -16 -121 12 -18 17
-18 24 -3 127 8 59 12 112 10 116 -3 4 -23 8 -44 8 -21 0 -42 5 -45 10 -4 6 7
10 27 10 62 0 75 9 82 52 8 46 24 47 45 1z m-2182 -49 c-11 -31 -19 -40 -42
-42 -52 -6 -54 16 -6 59 51 46 67 40 48 -17z m433 30 c56 -23 51 -49 -9 -48
-34 1 -49 7 -74 32 l-32 32 37 0 c21 0 56 -7 78 -16z m1256 -35 c20 -17 17
-28 -10 -35 -31 -7 -96 20 -96 42 0 14 7 16 46 10 26 -3 53 -11 60 -17z
m-1063 -8 c19 -8 26 -19 31 -54 4 -25 13 -48 21 -51 46 -17 -18 -63 -71 -50
-49 12 -56 22 -49 77 5 37 4 52 -6 58 -12 8 -11 11 1 19 19 12 42 13 73 1z
m690 -23 c6 -41 2 -48 -26 -48 -44 0 -51 15 -26 49 29 40 45 39 52 -1z m570
-40 c10 -5 20 -22 24 -39 4 -20 11 -28 22 -27 23 4 28 -64 6 -86 -19 -19 -73
-21 -110 -4 -24 11 -25 14 -19 75 6 53 4 63 -9 63 -26 0 -30 20 -5 29 24 10
60 5 91 -11z m-236 -343 c26 -11 33 -19 26 -26 -13 -13 -75 4 -93 27 -10 11
-9 14 9 14 12 0 38 -7 58 -15z m598 -103 c4 -20 18 -66 32 -101 25 -62 25 -65
7 -78 -23 -17 -85 -17 -108 0 -18 13 -17 18 10 132 23 99 29 115 40 101 6 -9
15 -34 19 -54z m-1725 2 c7 -17 17 -24 35 -24 33 0 68 -18 60 -31 -4 -5 -22
-9 -41 -9 -19 0 -34 -4 -34 -9 0 -13 -30 -22 -50 -16 -10 3 -20 15 -23 25 -4
14 -14 20 -32 20 -23 0 -26 -3 -21 -22 3 -13 6 -29 6 -35 0 -7 12 -13 26 -13
33 0 64 -17 64 -35 0 -20 -73 -20 -90 -1 -6 8 -24 16 -38 18 -25 3 -27 6 -26
50 0 45 -1 47 -35 56 l-36 10 38 1 c23 1 40 7 43 16 8 19 34 20 34 1 0 -8 14
-15 37 -18 32 -4 37 -1 47 23 11 31 23 29 36 -7z m1224 3 c17 -13 17 -14 2
-20 -9 -4 -60 -2 -114 3 -53 5 -108 10 -122 11 -52 3 44 16 131 18 57 1 91 -3
103 -12z m741 -32 c0 -13 -97 -19 -155 -9 -44 7 -44 8 -15 15 43 10 170 6 170
-6z m-775 -34 c13 -25 13 -68 0 -76 -19 -12 -10 -20 27 -23 21 -1 44 -9 52
-17 23 -23 -25 -28 -153 -16 -137 13 -191 29 -106 31 42 0 51 3 38 11 -21 12
-23 37 -4 62 18 24 31 21 55 -10 14 -20 20 -23 21 -12 0 19 37 69 50 69 5 0
14 -9 20 -19z m409 -76 c11 -11 12 -18 4 -26 -9 -9 -24 -9 -60 0 -53 14 -76
28 -67 43 9 15 105 2 123 -17z m317 -22 c9 -46 11 -48 44 -51 58 -5 68 -11 46
-28 -11 -8 -30 -14 -43 -14 -28 0 -29 -10 -8 -139 14 -87 14 -95 -1 -112 -24
-26 -88 -26 -107 1 -12 17 -12 33 -1 107 21 139 23 133 -41 133 -72 0 -70 14
3 26 l57 9 14 58 c7 31 17 57 21 57 4 0 12 -21 16 -47z m-2916 27 c12 -7 8
-10 -15 -10 -16 0 -37 5 -45 10 -12 7 -8 10 15 10 17 0 37 -5 45 -10z m1921
-27 c18 -21 39 -203 26 -220 -14 -19 -150 -17 -187 2 -41 21 -41 28 -4 153
l25 82 63 0 c47 0 67 -4 77 -17z m-422 -17 c10 -11 8 -16 -8 -21 -27 -8 -71 4
-71 21 0 19 64 19 79 0z m-413 -16 c61 -20 32 -60 -43 -60 -52 1 -242 26 -250
34 -16 16 17 21 215 34 24 2 59 -2 78 -8z m574 -23 c58 -29 3 -67 -70 -47 -43
12 -62 36 -39 51 20 13 80 11 109 -4z m-375 -52 c8 -30 19 -55 23 -55 5 0 14
16 21 35 18 51 44 46 66 -11 13 -35 21 -44 34 -38 51 22 91 27 116 16 15 -7
25 -18 23 -25 -8 -23 -83 -51 -150 -55 -60 -4 -69 -2 -91 20 -19 19 -29 23
-47 16 -25 -9 -95 6 -106 23 -3 6 5 23 19 37 13 15 32 42 41 60 9 17 21 32 26
32 5 0 16 -25 25 -55z m-372 -22 c9 -29 10 -30 51 -20 33 7 50 6 72 -4 27 -13
29 -19 29 -67 -1 -28 -7 -58 -13 -64 -18 -18 -110 -17 -121 1 -6 8 -4 29 5 53
11 32 11 38 -1 38 -7 0 -16 -13 -20 -29 -10 -45 -38 -65 -80 -57 -47 9 -53 28
-23 74 14 20 35 54 48 75 25 43 41 43 53 0z m1661 31 c8 -3 18 -22 22 -42 3
-21 13 -42 21 -49 33 -26 -27 -59 -77 -42 -30 11 -30 12 -24 65 6 50 5 54 -15
54 -11 0 -21 5 -21 10 0 11 69 14 94 4z m-303 -14 c17 -9 19 -22 19 -105 l0
-94 -32 -5 c-18 -3 -73 -8 -121 -11 -72 -5 -93 -3 -113 10 -29 19 -30 35 -4
110 36 104 37 105 141 105 50 0 99 -5 110 -10z m1026 -94 c23 -21 25 -27 13
-41 -19 -23 -84 -17 -88 8 -4 19 23 57 40 57 5 0 21 -11 35 -24z"/>
<path d="M3020 2209 c0 -5 5 -7 10 -4 6 3 10 8 10 11 0 2 -4 4 -10 4 -5 0 -10
-5 -10 -11z"/>
<path d="M2706 2173 c10 -40 12 -43 40 -43 22 0 25 4 22 33 -3 28 -7 32 -36
35 -31 3 -32 2 -26 -25z"/>
<path d="M2730 2068 c0 -26 16 -55 24 -47 3 3 9 20 12 37 6 28 4 32 -15 32
-15 0 -21 -6 -21 -22z"/>
<path d="M3048 2062 c-10 -2 -18 -12 -18 -23 0 -11 7 -19 18 -19 9 0 27 -3 40
-6 19 -6 22 -3 22 24 0 30 -13 36 -62 24z"/>
<path d="M3040 1965 c0 -14 45 -43 54 -34 2 2 6 13 8 24 2 16 -3 21 -29 23
-25 2 -33 -1 -33 -13z"/>
</g>
</svg>
